<svg xmlns="http://www.w3.org/2000/svg" viewBox="0 0 512 512" fill="none">
  <defs>
    <linearGradient id="bg" x1="0%" y1="0%" x2="100%" y2="100%">
      <stop offset="0%" style="stop-color:#6366f1"/>
      <stop offset="50%" style="stop-color:#8b5cf6"/>
      <stop offset="100%" style="stop-color:#a855f7"/>
    </linearGradient>
  </defs>
  <rect width="512" height="512" rx="112" fill="url(#bg)"/>
  <g transform="translate(128, 120)">
    <path d="M128 0C57.3 0 0 57.3 0 128c0 70.7 57.3 128 128 128s128-57.3 128-128C256 57.3 198.7 0 128 0zm0 32c53 0 96 43 96 96s-43 96-96 96-96-43-96-96 43-96 96-96z" fill="white" opacity="0.2"/>
    <path d="M128 48v160" stroke="white" stroke-width="20" stroke-linecap="round"/>
    <path d="M88 88h80c13.3 0 24 10.7 24 24s-10.7 24-24 24H104c-13.3 0-24 10.7-24 24s10.7 24 24 24h64" stroke="white" stroke-width="20" stroke-linecap="round" stroke-linejoin="round"/>
  </g>
  <circle cx="380" cy="380" r="72" fill="white" opacity="0.15"/>
  <circle cx="100" cy="420" r="48" fill="white" opacity="0.08"/>
</svg>
